<svg width="72" height="79" viewBox="0 0 72 79" fill="none" xmlns="http://www.w3.org/2000/svg">
<path d="M29.1456 64.144H24.3579C24.2704 63.5246 24.0919 62.9743 23.8222 62.4933C23.5526 62.0051 23.2065 61.5897 22.7838 61.2471C22.3611 60.9046 21.8729 60.6423 21.3191 60.4601C20.7725 60.2779 20.1786 60.1868 19.5373 60.1868C18.3787 60.1868 17.3694 60.4747 16.5095 61.0504C15.6496 61.6188 14.9828 62.4496 14.5092 63.5428C14.0355 64.6286 13.7986 65.9477 13.7986 67.5C13.7986 69.096 14.0355 70.4369 14.5092 71.5228C14.9901 72.6087 15.6605 73.4285 16.5204 73.9824C17.3803 74.5363 18.375 74.8132 19.5046 74.8132C20.1385 74.8132 20.7252 74.7294 21.2644 74.5618C21.811 74.3942 22.2956 74.15 22.7182 73.8294C23.1409 73.5014 23.4907 73.1042 23.7676 72.6378C24.0518 72.1714 24.2485 71.6394 24.3579 71.0418L29.1456 71.0637C29.0217 72.0913 28.712 73.0824 28.2164 74.0371C27.7282 74.9845 27.0687 75.8335 26.238 76.5841C25.4145 77.3275 24.4307 77.9178 23.2866 78.355C22.1498 78.785 20.8636 79 19.428 79C17.4313 79 15.646 78.5482 14.0719 77.6445C12.5052 76.7408 11.2663 75.4327 10.3554 73.7201C9.45181 72.0074 9 69.9341 9 67.5C9 65.0586 9.4591 62.9816 10.3773 61.269C11.2955 59.5564 12.5416 58.2519 14.1156 57.3555C15.6897 56.4518 17.4605 56 19.428 56C20.7252 56 21.9276 56.1822 23.0352 56.5466C24.1502 56.911 25.1376 57.443 25.9975 58.1426C26.8574 58.8349 27.5569 59.6839 28.0962 60.6896C28.6427 61.6953 28.9925 62.8468 29.1456 64.144Z" fill="#1C58F1"/>
<path d="M35.9774 78.6939H30.9054L38.6336 56.3061H44.733L52.4502 78.6939H47.3782L41.7707 61.4221H41.5958L35.9774 78.6939ZM35.6604 69.894H47.6406V73.5889H35.6604V69.894Z" fill="#1C58F1"/>
<path d="M55.1446 78.6939V56.3061H63.9767C65.6747 56.3061 67.1212 56.6304 68.3163 57.279C69.5114 57.9203 70.4223 58.8131 71.049 59.9572C71.683 61.0941 72 62.4059 72 63.8926C72 65.3793 71.6794 66.6911 71.0381 67.8279C70.3968 68.9648 69.4677 69.8503 68.2507 70.4843C67.041 71.1183 65.5763 71.4354 63.8565 71.4354H58.2271V67.6421H63.0913C64.0023 67.6421 64.7528 67.4854 65.3431 67.1721C65.9407 66.8514 66.3852 66.4105 66.6767 65.8493C66.9754 65.2809 67.1248 64.6286 67.1248 63.8926C67.1248 63.1492 66.9754 62.5006 66.6767 61.9468C66.3852 61.3856 65.9407 60.952 65.3431 60.6459C64.7456 60.3325 63.9877 60.1759 63.0695 60.1759H59.8777V78.6939H55.1446Z" fill="#1C58F1"/>
<rect x="4.5" y="4.5" width="41" height="41" rx="6.5" stroke="#1C58F1" stroke-width="9"/>
</svg>
