<svg width="1em" height="1em" viewBox="0 0 43 43" fill="none" xmlns="http://www.w3.org/2000/svg">
<g clip-path="url(#clip0_3_18)">
<path d="M21.5 43C33.4147 43 43 33.4147 43 21.5C43 9.58535 33.4147 0 21.5 0C9.58535 0 0 9.58535 0 21.5C0 33.4147 9.58535 43 21.5 43Z" fill="#2775CA"/>
<path d="M27.4125 24.9041C27.4125 21.7687 25.5313 20.6937 21.7688 20.2459C19.0813 19.8875 18.5438 19.1709 18.5438 17.9166C18.5438 16.6623 19.4397 15.8562 21.2313 15.8562C22.8438 15.8562 23.7397 16.3937 24.1875 17.7375C24.2772 18.0062 24.5459 18.1853 24.8147 18.1853H26.2479C26.6063 18.1853 26.875 17.9166 26.875 17.5584V17.4687C26.5166 15.4978 24.9041 13.975 22.8438 13.7959V11.6459C22.8438 11.2875 22.575 11.0187 22.1272 10.9291H20.7834C20.425 10.9291 20.1563 11.1978 20.0666 11.6459V13.7062C17.3791 14.0646 15.6772 15.8562 15.6772 18.0959C15.6772 21.0521 17.4688 22.2166 21.2313 22.6646C23.7397 23.1125 24.5459 23.65 24.5459 25.0834C24.5459 26.5168 23.2916 27.5021 21.5897 27.5021C19.2604 27.5021 18.4541 26.5166 18.1854 25.1728C18.0959 24.8146 17.8272 24.6353 17.5584 24.6353H16.0354C15.6772 24.6353 15.4084 24.9041 15.4084 25.2625V25.3521C15.7666 27.5916 17.2 29.2041 20.1563 29.6521V31.8021C20.1563 32.1603 20.425 32.4291 20.8729 32.5187H22.2166C22.575 32.5187 22.8438 32.25 22.9334 31.8021V29.6521C25.6209 29.2041 27.4125 27.3228 27.4125 24.9041Z" fill="white"/>
<path d="M16.9313 34.3104C9.94376 31.8022 6.36035 24.0084 8.95841 17.1104C10.3022 13.3479 13.2584 10.4813 16.9313 9.13753C17.2897 8.95843 17.4688 8.68968 17.4688 8.24162V6.98753C17.4688 6.62912 17.2897 6.36038 16.9313 6.27094C16.8416 6.27094 16.6625 6.27093 16.5729 6.36037C8.06251 9.04787 3.4041 18.0959 6.0916 26.6063C7.7041 31.6229 11.5563 35.475 16.5729 37.0875C16.9313 37.2666 17.2897 37.0875 17.3791 36.7291C17.4688 36.6397 17.4688 36.55 17.4688 36.3709V35.1166C17.4688 34.8479 17.2 34.4897 16.9313 34.3104ZM26.4272 6.36037C26.0688 6.18128 25.7104 6.36037 25.6209 6.71878C25.5313 6.80843 25.5313 6.89788 25.5313 7.07719V8.33128C25.5313 8.68968 25.8 9.04787 26.0688 9.22718C33.0563 11.7354 36.6397 19.5291 34.0416 26.4272C32.6979 30.1897 29.7416 33.0563 26.0688 34.4C25.7104 34.5791 25.5313 34.8479 25.5313 35.2959V36.55C25.5313 36.9084 25.7104 37.1772 26.0688 37.2666C26.1584 37.2666 26.3375 37.2666 26.4272 37.1772C34.9375 34.4897 39.5959 25.4416 36.9084 16.9313C35.2959 11.825 31.3541 7.97287 26.4272 6.36037Z" fill="white"/>
</g>
<defs>
<clipPath id="clip0_3_18">
<rect width="43" height="43" fill="white"/>
</clipPath>
</defs>
</svg>
