<svg width="1em" height="1em" viewBox="0 0 43 43" fill="none" xmlns="http://www.w3.org/2000/svg">
<g clip-path="url(#clip0_3_9)">
<path d="M21.5 0C33.3752 0 43 9.62672 43 21.5C43 33.3752 33.3752 43 21.5 43C9.62672 43 0 33.3742 0 21.5C0 9.62672 9.62672 0 21.5 0Z" fill="#F5AC37"/>
<path d="M22.2924 23.018H30.462C30.6362 23.018 30.7184 23.018 30.731 22.7897C30.7978 21.9586 30.7978 21.1227 30.731 20.2906C30.731 20.129 30.6507 20.0623 30.4756 20.0623H14.2166C14.0154 20.0623 13.9612 20.129 13.9612 20.3177V22.7094C13.9612 23.018 13.9612 23.018 14.2834 23.018H22.2924ZM29.8187 17.2671C29.8419 17.2062 29.8419 17.1394 29.8187 17.0794C29.6822 16.7824 29.5207 16.4989 29.333 16.2329C29.0505 15.7781 28.7176 15.3592 28.3384 14.9828C28.1594 14.7555 27.9523 14.5513 27.7201 14.3782C26.5572 13.3884 25.1746 12.6879 23.6885 12.3357C22.9387 12.1674 22.1724 12.0871 21.4042 12.0939H14.1885C13.9873 12.0939 13.9602 12.1742 13.9602 12.3493V17.1191C13.9602 17.3204 13.9602 17.3745 14.2156 17.3745H29.7219C29.7219 17.3745 29.8564 17.3474 29.8835 17.2671H29.8177H29.8187ZM29.8187 25.8132C29.5903 25.788 29.3601 25.788 29.1317 25.8132H14.2301C14.0289 25.8132 13.9612 25.8131 13.9612 26.0821V30.7455C13.9612 30.9603 13.9612 31.0145 14.2301 31.0145H21.1101C21.4391 31.0396 21.768 31.0164 22.0902 30.9477C23.0887 30.8761 24.0707 30.6594 25.0072 30.3024C25.3478 30.1844 25.6767 30.0305 25.9873 29.8457H26.0812C27.694 29.0069 29.004 27.6892 29.8303 26.0715C29.8303 26.0715 29.9241 25.8683 29.8187 25.8151V25.8132ZM11.2609 33.4323V33.352V30.2211V29.1598V26.0018C11.2609 25.8267 11.2609 25.8006 11.0461 25.8006H8.12999C7.96842 25.8006 7.90166 25.8006 7.90166 25.5858V23.0325H11.019C11.1931 23.0325 11.2609 23.0325 11.2609 22.8042V20.278C11.2609 20.1165 11.2609 20.0768 11.0461 20.0768H8.12999C7.96842 20.0768 7.90166 20.0768 7.90166 19.862V17.4974C7.90166 17.3494 7.90166 17.3097 8.11644 17.3097H11.0054C11.2067 17.3097 11.2609 17.3097 11.2609 17.0543V9.81151C11.2609 9.59672 11.2609 9.54254 11.5298 9.54254H21.6074C22.3388 9.57157 23.0654 9.65187 23.7843 9.78442C25.2656 10.0582 26.6888 10.5875 27.9901 11.3431C28.8531 11.851 29.6474 12.4644 30.3547 13.1707C30.8868 13.7232 31.3667 14.3211 31.7924 14.9577C32.2152 15.603 32.5664 16.2929 32.8421 17.0137C32.876 17.2013 33.0559 17.3281 33.2436 17.2962H35.6489C35.9575 17.2962 35.9575 17.2962 35.971 17.5922V19.7962C35.971 20.011 35.8907 20.0652 35.675 20.0652H33.8203C33.6326 20.0652 33.5784 20.0652 33.5919 20.3071C33.6655 21.1256 33.6655 21.947 33.5919 22.7655C33.5919 22.9938 33.5919 23.0209 33.8483 23.0209H35.9701C36.0639 23.1419 35.9701 23.2628 35.9701 23.3847C35.9836 23.5405 35.9836 23.6982 35.9701 23.8539V25.4803C35.9701 25.7087 35.9033 25.7764 35.7011 25.7764H33.1614C32.9843 25.7425 32.8121 25.8557 32.7715 26.0318C32.1668 27.604 31.1993 29.0137 29.9493 30.1437C29.4926 30.5549 29.0127 30.9419 28.5115 31.2989C27.9736 31.6085 27.4502 31.9307 26.8987 32.1861C25.8838 32.6428 24.8195 32.9795 23.7272 33.1933C22.69 33.3791 21.6384 33.4633 20.5828 33.4487H11.257V33.4352L11.2609 33.4323Z" fill="#FEFEFD"/>
</g>
<defs>
<clipPath id="clip0_3_9">
<rect width="43" height="43" fill="white"/>
</clipPath>
</defs>
</svg>
