<svg width="1em" height="1em" viewBox="0 0 43 43" fill="none" xmlns="http://www.w3.org/2000/svg">
<g clip-path="url(#clip0_3_22)">
<path d="M21.5 43C33.3741 43 43 33.3741 43 21.5C43 9.62588 33.3741 0 21.5 0C9.62588 0 0 9.62588 0 21.5C0 33.3741 9.62588 43 21.5 43Z" fill="#50AF95"/>
<path fill-rule="evenodd" clip-rule="evenodd" d="M24.4503 22.9764C24.2855 22.9884 23.4341 23.0378 21.535 23.0378C20.0245 23.0378 18.9521 22.9937 18.5758 22.9764C12.7385 22.7264 8.38141 21.7374 8.38141 20.5532C8.38141 19.369 12.7385 18.3813 18.5758 18.1273V21.9913C18.9576 22.018 20.0506 22.0809 21.5611 22.0809C23.3737 22.0809 24.2814 22.0074 24.4448 21.9926V18.13C30.2698 18.3826 34.6172 19.3717 34.6172 20.5532C34.6172 21.7347 30.2711 22.7237 24.4448 22.975L24.4503 22.9764ZM24.4503 17.7304V14.2727H32.5794V9H10.4467V14.2727H18.5745V17.729C11.9681 18.0244 7 19.2982 7 20.8245C7 22.3508 11.9681 23.6232 18.5745 23.92V35H24.4489V23.916C31.0401 23.6206 36 22.3482 36 20.8232C36 19.2982 31.0442 18.0258 24.4489 17.729L24.4503 17.7304Z" fill="white"/>
</g>
<defs>
<clipPath id="clip0_3_22">
<rect width="43" height="43" fill="white"/>
</clipPath>
</defs>
</svg>
