<svg width="1em" height="1em" viewBox="0 0 43 43" fill="none" xmlns="http://www.w3.org/2000/svg">
<g clip-path="url(#clip0_3_13)" filter="url(#filter0_i_3_13)">
<path d="M21.5 43C33.3741 43 43 33.3741 43 21.5C43 9.62588 33.3741 0 21.5 0C9.62588 0 0 9.62588 0 21.5C0 33.3741 9.62588 43 21.5 43Z" fill="white"/>
<path d="M28.4306 11.1756L23.6315 18.3056C23.2997 18.7911 23.9378 19.3789 24.3973 18.97L29.1199 14.8556C29.2475 14.7533 29.4262 14.83 29.4262 15.0089V27.8633C29.4262 28.0422 29.1964 28.1189 29.0943 27.9911L14.7991 10.8689C14.3396 10.3067 13.6759 10 12.9356 10H12.4251C11.0977 10 10 11.0989 10 12.4533V30.5467C10 31.9011 11.0977 33 12.4506 33C13.293 33 14.0844 32.5656 14.5438 31.8244L19.343 24.6944C19.6748 24.2089 19.0366 23.6211 18.5771 24.03L13.8546 28.1189C13.727 28.2211 13.5483 28.1444 13.5483 27.9656V15.1367C13.5483 14.9578 13.778 14.8811 13.8801 15.0089L28.1754 32.1311C28.6348 32.6933 29.3241 33 30.0388 33H30.5494C31.9023 33 33 31.9011 33 30.5467V12.4533C33 11.0989 31.9023 10 30.5494 10C29.6815 10 28.8901 10.4344 28.4306 11.1756Z" fill="black"/>
</g>
<defs>
<filter id="filter0_i_3_13" x="0" y="0" width="43" height="43" filterUnits="userSpaceOnUse" color-interpolation-filters="sRGB">
<feFlood flood-opacity="0" result="BackgroundImageFix"/>
<feBlend mode="normal" in="SourceGraphic" in2="BackgroundImageFix" result="shape"/>
<feColorMatrix in="SourceAlpha" type="matrix" values="0 0 0 0 0 0 0 0 0 0 0 0 0 0 0 0 0 0 127 0" result="hardAlpha"/>
<feOffset/>
<feGaussianBlur stdDeviation="1.5"/>
<feComposite in2="hardAlpha" operator="arithmetic" k2="-1" k3="1"/>
<feColorMatrix type="matrix" values="0 0 0 0 0 0 0 0 0 0 0 0 0 0 0 0 0 0 0.2 0"/>
<feBlend mode="normal" in2="shape" result="effect1_innerShadow_3_13"/>
</filter>
<clipPath id="clip0_3_13">
<rect width="43" height="43" fill="white"/>
</clipPath>
</defs>
</svg>
