<svg width="1em" height="1em" viewBox="0 0 43 43" fill="none" xmlns="http://www.w3.org/2000/svg">
<g clip-path="url(#clip0_3_48)">
<path d="M21.5 43C33.3741 43 43 33.3741 43 21.5C43 9.62588 33.3741 0 21.5 0C9.62588 0 0 9.62588 0 21.5C0 33.3741 9.62588 43 21.5 43Z" fill="#0088CC"/>
<path fill-rule="evenodd" clip-rule="evenodd" d="M15.0051 12H28.0165C28.5137 12 28.9281 12.083 29.4254 12.3319C30.0055 12.5808 30.337 12.9956 30.5027 13.3275C30.5027 13.3275 30.5027 13.4105 30.5856 13.4105C30.8342 13.8253 31 14.3231 31 14.9039C31 15.4017 30.9171 15.8996 30.5856 16.3974L22.381 30.5022C22.2152 30.8341 21.8837 31 21.4693 31C21.1378 31 20.8063 30.8341 20.5577 30.5022L12.5188 16.3974C12.3531 16.0655 12.0216 15.6507 12.0216 14.9869C11.9387 14.4061 12.1044 13.9083 12.3531 13.4105C12.6017 12.9127 13.0161 12.4978 13.5962 12.3319C14.0934 12 14.6736 12 15.0051 12ZM20.4748 13.9913H15.0051C14.6736 13.9913 14.5078 13.9913 14.4249 14.0742C14.2592 14.1572 14.1763 14.2402 14.0934 14.4061C14.0106 14.4891 14.0106 14.655 14.0106 14.821C14.0106 14.9039 14.0934 14.9869 14.2592 15.3188L20.4748 26.1048V13.9913ZM22.4638 13.9913V26.1878L28.7624 15.3188C28.8452 15.1528 28.8452 14.9869 28.8452 14.821C28.8452 14.655 28.8452 14.4891 28.7624 14.4061C28.6795 14.3231 28.6795 14.2402 28.5966 14.2402L28.5137 14.1572C28.348 14.0742 28.1822 14.0742 27.9336 14.0742H22.4638V13.9913Z" fill="white"/>
</g>
<defs>
<clipPath id="clip0_3_48">
<rect width="43" height="43" fill="white"/>
</clipPath>
</defs>
</svg>
